<mxfile host="app.diagrams.net" agent="Mozilla/5.0 (Macintosh; Intel Mac OS X 10_15_7) AppleWebKit/537.36 (KHTML, like Gecko) Chrome/133.0.0.0 Safari/537.36" version="26.0.15">
  <diagram id="C5RBs43oDa-KdzZeNtuy" name="Page-1">
    <mxGraphModel dx="1242" dy="703" grid="1" gridSize="10" guides="1" tooltips="1" connect="1" arrows="1" fold="1" page="1" pageScale="1" pageWidth="827" pageHeight="1169" math="0" shadow="0">
      <root>
        <mxCell id="WIyWlLk6GJQsqaUBKTNV-0" />
        <mxCell id="WIyWlLk6GJQsqaUBKTNV-1" parent="WIyWlLk6GJQsqaUBKTNV-0" />
        <mxCell id="zBtAvuP8c3fkPAvaUFku-0" value="Portal Auto Redirect Flow" style="swimlane;childLayout=stackLayout;resizeParent=1;resizeParentMax=0;startSize=20;html=1;" vertex="1" parent="WIyWlLk6GJQsqaUBKTNV-1">
          <mxGeometry x="120" y="20" width="1000" height="1140" as="geometry" />
        </mxCell>
        <mxCell id="zBtAvuP8c3fkPAvaUFku-1" value="Access Token Guard" style="swimlane;startSize=20;html=1;" vertex="1" parent="zBtAvuP8c3fkPAvaUFku-0">
          <mxGeometry y="20" width="250" height="1120" as="geometry" />
        </mxCell>
        <mxCell id="WIyWlLk6GJQsqaUBKTNV-6" value="Have AccessToken?" style="rhombus;whiteSpace=wrap;html=1;shadow=0;fontFamily=Helvetica;fontSize=12;align=center;strokeWidth=1;spacing=6;spacingTop=-4;" parent="zBtAvuP8c3fkPAvaUFku-1" vertex="1">
          <mxGeometry x="75" y="140" width="100" height="80" as="geometry" />
        </mxCell>
        <mxCell id="WIyWlLk6GJQsqaUBKTNV-3" value="Start" style="rounded=1;whiteSpace=wrap;html=1;fontSize=12;glass=0;strokeWidth=1;shadow=0;" parent="zBtAvuP8c3fkPAvaUFku-1" vertex="1">
          <mxGeometry x="65" y="50" width="120" height="40" as="geometry" />
        </mxCell>
        <mxCell id="WIyWlLk6GJQsqaUBKTNV-2" value="" style="rounded=0;html=1;jettySize=auto;orthogonalLoop=1;fontSize=11;endArrow=block;endFill=0;endSize=8;strokeWidth=1;shadow=0;labelBackgroundColor=none;edgeStyle=orthogonalEdgeStyle;" parent="zBtAvuP8c3fkPAvaUFku-1" source="WIyWlLk6GJQsqaUBKTNV-3" target="WIyWlLk6GJQsqaUBKTNV-6" edge="1">
          <mxGeometry relative="1" as="geometry" />
        </mxCell>
        <mxCell id="zBtAvuP8c3fkPAvaUFku-9" value="Have Query Company?" style="rhombus;whiteSpace=wrap;html=1;" vertex="1" parent="zBtAvuP8c3fkPAvaUFku-1">
          <mxGeometry x="72.5" y="510" width="105" height="110" as="geometry" />
        </mxCell>
        <mxCell id="WIyWlLk6GJQsqaUBKTNV-5" value="No" style="edgeStyle=orthogonalEdgeStyle;rounded=0;html=1;jettySize=auto;orthogonalLoop=1;fontSize=11;endArrow=block;endFill=0;endSize=8;strokeWidth=1;shadow=0;labelBackgroundColor=none;exitX=0;exitY=0.5;exitDx=0;exitDy=0;entryX=0;entryY=0.5;entryDx=0;entryDy=0;" parent="zBtAvuP8c3fkPAvaUFku-1" source="WIyWlLk6GJQsqaUBKTNV-6" target="zBtAvuP8c3fkPAvaUFku-9" edge="1">
          <mxGeometry y="10" relative="1" as="geometry">
            <mxPoint as="offset" />
            <Array as="points">
              <mxPoint x="20" y="180" />
              <mxPoint x="20" y="565" />
            </Array>
          </mxGeometry>
        </mxCell>
        <mxCell id="WIyWlLk6GJQsqaUBKTNV-10" value="Not Have Query Company Or Is Same With Cur Company ?" style="rhombus;whiteSpace=wrap;html=1;shadow=0;fontFamily=Helvetica;fontSize=12;align=center;strokeWidth=1;spacing=6;spacingTop=-4;" parent="zBtAvuP8c3fkPAvaUFku-1" vertex="1">
          <mxGeometry x="50" y="300" width="150" height="140" as="geometry" />
        </mxCell>
        <mxCell id="WIyWlLk6GJQsqaUBKTNV-4" value="Yes" style="rounded=0;html=1;jettySize=auto;orthogonalLoop=1;fontSize=11;endArrow=block;endFill=0;endSize=8;strokeWidth=1;shadow=0;labelBackgroundColor=none;edgeStyle=orthogonalEdgeStyle;" parent="zBtAvuP8c3fkPAvaUFku-1" source="WIyWlLk6GJQsqaUBKTNV-6" target="WIyWlLk6GJQsqaUBKTNV-10" edge="1">
          <mxGeometry y="20" relative="1" as="geometry">
            <mxPoint as="offset" />
          </mxGeometry>
        </mxCell>
        <mxCell id="WIyWlLk6GJQsqaUBKTNV-8" value="" style="rounded=0;html=1;jettySize=auto;orthogonalLoop=1;fontSize=11;endArrow=block;endFill=0;endSize=8;strokeWidth=1;shadow=0;labelBackgroundColor=none;edgeStyle=orthogonalEdgeStyle;exitX=0.5;exitY=1;exitDx=0;exitDy=0;" parent="zBtAvuP8c3fkPAvaUFku-1" source="WIyWlLk6GJQsqaUBKTNV-10" target="zBtAvuP8c3fkPAvaUFku-9" edge="1">
          <mxGeometry x="0.3333" y="20" relative="1" as="geometry">
            <mxPoint as="offset" />
            <mxPoint x="125" y="450" as="targetPoint" />
          </mxGeometry>
        </mxCell>
        <mxCell id="zBtAvuP8c3fkPAvaUFku-7" value="No" style="edgeLabel;html=1;align=center;verticalAlign=middle;resizable=0;points=[];" vertex="1" connectable="0" parent="WIyWlLk6GJQsqaUBKTNV-8">
          <mxGeometry x="-0.3839" relative="1" as="geometry">
            <mxPoint y="1" as="offset" />
          </mxGeometry>
        </mxCell>
        <mxCell id="zBtAvuP8c3fkPAvaUFku-2" value="Router" style="swimlane;startSize=20;html=1;" vertex="1" parent="zBtAvuP8c3fkPAvaUFku-0">
          <mxGeometry x="250" y="20" width="190" height="1120" as="geometry" />
        </mxCell>
        <mxCell id="WIyWlLk6GJQsqaUBKTNV-7" value="Go To My Companies Page" style="rounded=1;whiteSpace=wrap;html=1;fontSize=12;glass=0;strokeWidth=1;shadow=0;" parent="zBtAvuP8c3fkPAvaUFku-2" vertex="1">
          <mxGeometry x="10" y="545" width="170" height="40" as="geometry" />
        </mxCell>
        <mxCell id="zBtAvuP8c3fkPAvaUFku-3" value="Permission Guard" style="swimlane;startSize=20;html=1;" vertex="1" parent="zBtAvuP8c3fkPAvaUFku-0">
          <mxGeometry x="440" y="20" width="160" height="1120" as="geometry" />
        </mxCell>
        <mxCell id="WIyWlLk6GJQsqaUBKTNV-12" value="Check is have permission" style="rounded=1;whiteSpace=wrap;html=1;fontSize=12;glass=0;strokeWidth=1;shadow=0;" parent="zBtAvuP8c3fkPAvaUFku-3" vertex="1">
          <mxGeometry x="20" y="350" width="120" height="40" as="geometry" />
        </mxCell>
        <mxCell id="zBtAvuP8c3fkPAvaUFku-16" value="My Companies Page" style="swimlane;startSize=20;html=1;" vertex="1" parent="zBtAvuP8c3fkPAvaUFku-0">
          <mxGeometry x="600" y="20" width="200" height="1120" as="geometry" />
        </mxCell>
        <mxCell id="zBtAvuP8c3fkPAvaUFku-22" value="" style="edgeStyle=orthogonalEdgeStyle;rounded=0;orthogonalLoop=1;jettySize=auto;html=1;" edge="1" parent="zBtAvuP8c3fkPAvaUFku-16" source="zBtAvuP8c3fkPAvaUFku-20" target="zBtAvuP8c3fkPAvaUFku-21">
          <mxGeometry relative="1" as="geometry" />
        </mxCell>
        <mxCell id="zBtAvuP8c3fkPAvaUFku-20" value="Fetch Subscriptions&lt;br&gt;Fetch My Companies" style="rounded=1;whiteSpace=wrap;html=1;" vertex="1" parent="zBtAvuP8c3fkPAvaUFku-16">
          <mxGeometry x="40" y="535" width="120" height="60" as="geometry" />
        </mxCell>
        <mxCell id="zBtAvuP8c3fkPAvaUFku-36" value="No" style="edgeStyle=orthogonalEdgeStyle;rounded=0;orthogonalLoop=1;jettySize=auto;html=1;entryX=0.5;entryY=1;entryDx=0;entryDy=0;" edge="1" parent="zBtAvuP8c3fkPAvaUFku-16" source="zBtAvuP8c3fkPAvaUFku-21" target="zBtAvuP8c3fkPAvaUFku-35">
          <mxGeometry relative="1" as="geometry" />
        </mxCell>
        <mxCell id="zBtAvuP8c3fkPAvaUFku-21" value="Have Valid External Company ?" style="rhombus;whiteSpace=wrap;html=1;rounded=1;" vertex="1" parent="zBtAvuP8c3fkPAvaUFku-16">
          <mxGeometry x="30" y="320" width="140" height="100" as="geometry" />
        </mxCell>
        <mxCell id="zBtAvuP8c3fkPAvaUFku-35" value="Only One Company?" style="rhombus;whiteSpace=wrap;html=1;rounded=1;" vertex="1" parent="zBtAvuP8c3fkPAvaUFku-16">
          <mxGeometry x="55" y="130" width="90" height="100" as="geometry" />
        </mxCell>
        <mxCell id="zBtAvuP8c3fkPAvaUFku-23" value="External Service Page" style="swimlane;startSize=20;html=1;" vertex="1" parent="zBtAvuP8c3fkPAvaUFku-0">
          <mxGeometry x="800" y="20" width="200" height="1120" as="geometry" />
        </mxCell>
        <mxCell id="zBtAvuP8c3fkPAvaUFku-28" value="Build UrlTree by route" style="rounded=1;whiteSpace=wrap;html=1;" vertex="1" parent="zBtAvuP8c3fkPAvaUFku-23">
          <mxGeometry x="40" y="340" width="130" height="60" as="geometry" />
        </mxCell>
        <mxCell id="zBtAvuP8c3fkPAvaUFku-32" value="Set External Route Data" style="rounded=1;whiteSpace=wrap;html=1;" vertex="1" parent="zBtAvuP8c3fkPAvaUFku-23">
          <mxGeometry x="25" y="720" width="150" height="60" as="geometry" />
        </mxCell>
        <mxCell id="WIyWlLk6GJQsqaUBKTNV-9" value="Yes" style="edgeStyle=orthogonalEdgeStyle;rounded=0;html=1;jettySize=auto;orthogonalLoop=1;fontSize=11;endArrow=block;endFill=0;endSize=8;strokeWidth=1;shadow=0;labelBackgroundColor=none;" parent="zBtAvuP8c3fkPAvaUFku-0" source="WIyWlLk6GJQsqaUBKTNV-10" target="WIyWlLk6GJQsqaUBKTNV-12" edge="1">
          <mxGeometry y="10" relative="1" as="geometry">
            <mxPoint as="offset" />
          </mxGeometry>
        </mxCell>
        <mxCell id="zBtAvuP8c3fkPAvaUFku-13" style="edgeStyle=orthogonalEdgeStyle;rounded=0;orthogonalLoop=1;jettySize=auto;html=1;entryX=0;entryY=0.5;entryDx=0;entryDy=0;" edge="1" parent="zBtAvuP8c3fkPAvaUFku-0" source="zBtAvuP8c3fkPAvaUFku-9" target="WIyWlLk6GJQsqaUBKTNV-7">
          <mxGeometry relative="1" as="geometry">
            <mxPoint x="260" y="585" as="targetPoint" />
          </mxGeometry>
        </mxCell>
        <mxCell id="zBtAvuP8c3fkPAvaUFku-14" value="No" style="edgeLabel;html=1;align=center;verticalAlign=middle;resizable=0;points=[];" vertex="1" connectable="0" parent="zBtAvuP8c3fkPAvaUFku-13">
          <mxGeometry x="-0.7455" y="2" relative="1" as="geometry">
            <mxPoint x="1" y="1" as="offset" />
          </mxGeometry>
        </mxCell>
        <mxCell id="zBtAvuP8c3fkPAvaUFku-18" style="edgeStyle=orthogonalEdgeStyle;rounded=0;orthogonalLoop=1;jettySize=auto;html=1;entryX=0;entryY=0.5;entryDx=0;entryDy=0;" edge="1" parent="zBtAvuP8c3fkPAvaUFku-0" source="WIyWlLk6GJQsqaUBKTNV-7" target="zBtAvuP8c3fkPAvaUFku-20">
          <mxGeometry relative="1" as="geometry">
            <mxPoint x="640" y="830" as="targetPoint" />
          </mxGeometry>
        </mxCell>
        <mxCell id="zBtAvuP8c3fkPAvaUFku-29" style="edgeStyle=orthogonalEdgeStyle;rounded=0;orthogonalLoop=1;jettySize=auto;html=1;exitX=1;exitY=0.5;exitDx=0;exitDy=0;entryX=0;entryY=0.5;entryDx=0;entryDy=0;" edge="1" parent="zBtAvuP8c3fkPAvaUFku-0" source="zBtAvuP8c3fkPAvaUFku-21" target="zBtAvuP8c3fkPAvaUFku-28">
          <mxGeometry relative="1" as="geometry" />
        </mxCell>
        <mxCell id="zBtAvuP8c3fkPAvaUFku-31" value="Yes" style="edgeLabel;html=1;align=center;verticalAlign=middle;resizable=0;points=[];" vertex="1" connectable="0" parent="zBtAvuP8c3fkPAvaUFku-29">
          <mxGeometry x="-0.6" relative="1" as="geometry">
            <mxPoint y="1" as="offset" />
          </mxGeometry>
        </mxCell>
        <mxCell id="zBtAvuP8c3fkPAvaUFku-11" style="edgeStyle=orthogonalEdgeStyle;rounded=0;orthogonalLoop=1;jettySize=auto;html=1;exitX=0.5;exitY=1;exitDx=0;exitDy=0;entryX=0.5;entryY=1;entryDx=0;entryDy=0;" edge="1" parent="zBtAvuP8c3fkPAvaUFku-0" source="zBtAvuP8c3fkPAvaUFku-9" target="zBtAvuP8c3fkPAvaUFku-32">
          <mxGeometry relative="1" as="geometry">
            <mxPoint x="125" y="710" as="targetPoint" />
          </mxGeometry>
        </mxCell>
        <mxCell id="zBtAvuP8c3fkPAvaUFku-33" value="Yes" style="edgeLabel;html=1;align=center;verticalAlign=middle;resizable=0;points=[];" vertex="1" connectable="0" parent="zBtAvuP8c3fkPAvaUFku-11">
          <mxGeometry x="-0.9241" y="1" relative="1" as="geometry">
            <mxPoint y="1" as="offset" />
          </mxGeometry>
        </mxCell>
        <mxCell id="zBtAvuP8c3fkPAvaUFku-34" style="edgeStyle=orthogonalEdgeStyle;rounded=0;orthogonalLoop=1;jettySize=auto;html=1;entryX=0.5;entryY=1;entryDx=0;entryDy=0;exitX=0;exitY=0.5;exitDx=0;exitDy=0;" edge="1" parent="zBtAvuP8c3fkPAvaUFku-0" source="zBtAvuP8c3fkPAvaUFku-32" target="WIyWlLk6GJQsqaUBKTNV-7">
          <mxGeometry relative="1" as="geometry" />
        </mxCell>
      </root>
    </mxGraphModel>
  </diagram>
</mxfile>
